<svg width="16" height="15" viewBox="0 0 16 15" fill="none" xmlns="http://www.w3.org/2000/svg">
<path d="M14.9512 13.0905C15.2543 13.0905 15.5 13.3314 15.5 13.6285C15.5 13.9008 15.2935 14.1259 15.0257 14.1615L14.9512 14.1664H9.22583C8.92274 14.1664 8.67705 13.9256 8.67705 13.6285C8.67705 13.3561 8.8835 13.1311 9.15136 13.0955L9.22583 13.0905H14.9512ZM9.38269 0.763604C10.4217 -0.25486 12.1069 -0.25486 13.1459 0.763604L14.2245 1.82092C15.2635 2.83938 15.2635 4.49129 14.2245 5.50976L6.11717 13.4569C5.65359 13.9113 5.02506 14.1663 4.36901 14.1663H1.04878C0.740346 14.1663 0.492487 13.9172 0.500174 13.615L0.583693 10.331C0.600298 9.71028 0.859392 9.11853 1.30722 8.67954L9.38269 0.763604ZM8.755 2.89892L2.08332 9.4403C1.83438 9.68432 1.69012 10.0138 1.68089 10.3585L1.61121 13.0901L4.36901 13.0905C4.69352 13.0905 5.00559 12.9785 5.2519 12.7762L5.34108 12.6962L12.0458 6.12392L8.755 2.89892ZM12.3698 1.52437C11.7594 0.926058 10.7691 0.926058 10.1588 1.52437L9.53167 2.13809L12.8217 5.36309L13.4484 4.749C14.0249 4.18393 14.0569 3.28669 13.5445 2.68472L13.4484 2.58168L12.3698 1.52437Z" fill="#EA7C69"/>
</svg>
